<svg width="22" height="26" viewBox="0 0 22 26" fill="none" xmlns="http://www.w3.org/2000/svg">
<path d="M1.5625 23.4208C1.5625 24.0634 1.80943 24.6796 2.24897 25.134C2.68851 25.5884 3.28465 25.8436 3.90625 25.8436H17.9688C18.5904 25.8436 19.1865 25.5884 19.626 25.134C20.0656 24.6796 20.3125 24.0634 20.3125 23.4208V6.46091H1.5625V23.4208ZM14.8438 10.499C14.8438 10.2848 14.9261 10.0794 15.0726 9.92791C15.2191 9.77645 15.4178 9.69137 15.625 9.69137C15.8322 9.69137 16.0309 9.77645 16.1774 9.92791C16.3239 10.0794 16.4062 10.2848 16.4062 10.499V21.8056C16.4062 22.0198 16.3239 22.2252 16.1774 22.3766C16.0309 22.5281 15.8322 22.6132 15.625 22.6132C15.4178 22.6132 15.2191 22.5281 15.0726 22.3766C14.9261 22.2252 14.8438 22.0198 14.8438 21.8056V10.499ZM10.1562 10.499C10.1562 10.2848 10.2386 10.0794 10.3851 9.92791C10.5316 9.77645 10.7303 9.69137 10.9375 9.69137C11.1447 9.69137 11.3434 9.77645 11.4899 9.92791C11.6364 10.0794 11.7188 10.2848 11.7188 10.499V21.8056C11.7188 22.0198 11.6364 22.2252 11.4899 22.3766C11.3434 22.5281 11.1447 22.6132 10.9375 22.6132C10.7303 22.6132 10.5316 22.5281 10.3851 22.3766C10.2386 22.2252 10.1562 22.0198 10.1562 21.8056V10.499ZM5.46875 10.499C5.46875 10.2848 5.55106 10.0794 5.69757 9.92791C5.84409 9.77645 6.0428 9.69137 6.25 9.69137C6.4572 9.69137 6.65591 9.77645 6.80243 9.92791C6.94894 10.0794 7.03125 10.2848 7.03125 10.499V21.8056C7.03125 22.0198 6.94894 22.2252 6.80243 22.3766C6.65591 22.5281 6.4572 22.6132 6.25 22.6132C6.0428 22.6132 5.84409 22.5281 5.69757 22.3766C5.55106 22.2252 5.46875 22.0198 5.46875 21.8056V10.499ZM21.0938 1.61523H15.2344L14.7754 0.671337C14.6782 0.469542 14.5284 0.299796 14.3429 0.181196C14.1575 0.062596 13.9437 -0.000152839 13.7256 8.84978e-06H8.14453C7.92694 -0.000855828 7.71352 0.061659 7.52871 0.180391C7.34391 0.299123 7.19519 0.46927 7.09961 0.671337L6.64062 1.61523H0.78125C0.57405 1.61523 0.375336 1.70032 0.228823 1.85178C0.08231 2.00324 0 2.20866 0 2.42285L0 4.03807C0 4.25227 0.08231 4.45769 0.228823 4.60914C0.375336 4.7606 0.57405 4.84569 0.78125 4.84569H21.0938C21.301 4.84569 21.4997 4.7606 21.6462 4.60914C21.7927 4.45769 21.875 4.25227 21.875 4.03807V2.42285C21.875 2.20866 21.7927 2.00324 21.6462 1.85178C21.4997 1.70032 21.301 1.61523 21.0938 1.61523Z" fill="#FF0000" fill-opacity="0.61"/>
</svg>
