<svg width="25" height="26" viewBox="0 0 25 26" fill="none" xmlns="http://www.w3.org/2000/svg">
<path d="M24.3104 7.16885L22.0594 9.49579C21.8299 9.73302 21.4589 9.73302 21.2294 9.49579L15.8094 3.89296C15.5799 3.65572 15.5799 3.2721 15.8094 3.03487L18.0604 0.707925C18.9735 -0.235975 20.4579 -0.235975 21.3758 0.707925L24.3104 3.74153C25.2284 4.68543 25.2284 6.2199 24.3104 7.16885ZM13.8758 5.03371L1.05353 18.2887L0.0183743 24.4215C-0.123228 25.2493 0.575016 25.9661 1.3758 25.8248L7.30843 24.7496L20.1307 11.4946C20.3602 11.2574 20.3602 10.8738 20.1307 10.6365L14.7108 5.03371C14.4764 4.79648 14.1053 4.79648 13.8758 5.03371ZM6.05843 17.153C5.78987 16.8754 5.78987 16.4312 6.05843 16.1536L13.578 8.38027C13.8465 8.10265 14.2762 8.10265 14.5448 8.38027C14.8133 8.65789 14.8133 9.10207 14.5448 9.37969L7.02523 17.153C6.75667 17.4306 6.32698 17.4306 6.05843 17.153ZM4.29573 21.398H6.63948V23.2303L3.49006 23.8007L1.9715 22.2309L2.52326 18.9752H4.29573V21.398Z" fill="#0084FF" fill-opacity="0.57"/>
</svg>
