<svg width="31" height="34" viewBox="0 0 31 34" fill="none" xmlns="http://www.w3.org/2000/svg">
<path d="M27.5556 3.77778V30.2222H3.44444V3.77778H27.5556ZM29.45 0H1.55C0.688889 0 0 0.755556 0 1.7V32.3C0 33.0556 0.688889 34 1.55 34H29.45C30.1389 34 31 33.0556 31 32.3V1.7C31 0.755556 30.1389 0 29.45 0ZM13.7778 7.55556H24.1111V11.3333H13.7778V7.55556ZM13.7778 15.1111H24.1111V18.8889H13.7778V15.1111ZM13.7778 22.6667H24.1111V26.4444H13.7778V22.6667ZM6.88889 7.55556H10.3333V11.3333H6.88889V7.55556ZM6.88889 15.1111H10.3333V18.8889H6.88889V15.1111ZM6.88889 22.6667H10.3333V26.4444H6.88889V22.6667Z" fill="#FFC100"/>
</svg>
