<svg width="116" height="120" viewBox="0 0 116 120" fill="none" xmlns="http://www.w3.org/2000/svg">
<ellipse cx="56.9681" cy="20.8391" rx="12.9679" ry="9.92993" fill="black"/>
<ellipse cx="66.5002" cy="3.40909" rx="2.5" ry="3.40909" fill="black"/>
<ellipse cx="44.5002" cy="3.40909" rx="2.5" ry="3.40909" fill="black"/>
<path d="M56.4008 35.1945C57.1139 35.0529 57.8499 35.0688 58.5575 35.2411L76.4797 39.6046C81.6868 40.8723 81.5563 48.3256 76.3087 49.3676L58.2473 52.9543C57.5342 53.0959 56.7982 53.08 56.0906 52.9077L38.1684 48.5442C32.9613 47.2764 33.0919 39.8232 38.3394 38.7811L56.4008 35.1945Z" fill="#FFC100"/>
<path d="M94.1557 42.7131C93.3791 43.6389 92.3436 44.2289 91.262 44.3622L74.0473 46.4836C69.8767 46.9975 68.1511 41.1842 71.5724 38.1464L84.7677 26.4299C85.4801 25.7973 86.3281 25.4081 87.1967 25.315L100.458 23.8935C104.258 23.4862 106.126 28.4444 103.398 31.6965L94.1557 42.7131Z" fill="#C4C4C4" fill-opacity="0.01" stroke="black"/>
<path d="M26.2801 23.7152C27.4261 23.6021 28.6168 23.9911 29.5846 24.7949L44.2288 36.9564C47.7292 39.8634 46.1433 45.4626 41.9173 45.1171L25.4939 43.7745C24.5551 43.6978 23.6321 43.3014 22.8624 42.6443L11.6871 33.1039C8.54496 30.4214 9.56653 25.3648 13.3256 24.9938L26.2801 23.7152Z" stroke="black"/>
<path d="M60.7307 76.4837C58.7842 78.414 55.6469 78.4176 53.6968 76.4919L41.436 64.3844C38.2578 61.2459 40.4778 55.8315 44.9449 55.8263L69.4435 55.7978C73.9106 55.7926 76.1408 61.2018 72.9685 64.3477L60.7307 76.4837Z" fill="black"/>
<path d="M18.377 95.4614C18.3574 95.0708 18.3477 94.5337 18.3477 93.8501C18.3672 93.1665 18.3867 92.4146 18.4062 91.5942C18.4453 90.7544 18.4844 89.8755 18.5234 88.9575C18.5625 88.02 18.5918 87.1021 18.6113 86.2036C18.6504 85.3052 18.6797 84.4556 18.6992 83.6548C18.7383 82.8345 18.7676 82.1216 18.7871 81.5161C18.8066 81.0864 18.8262 80.6665 18.8457 80.2563C18.8652 79.9048 18.875 79.5239 18.875 79.1138C18.875 78.7036 18.8555 78.3325 18.8164 78.0005C18.9727 77.9419 19.0996 77.8833 19.1973 77.8247C19.2949 77.7661 19.3926 77.7075 19.4902 77.6489C19.5879 77.5708 19.6953 77.4927 19.8125 77.4146C19.9492 77.3169 20.1348 77.2192 20.3691 77.1216C20.5059 77.063 20.6523 77.0142 20.8086 76.9751C20.9453 76.936 21.0918 76.9067 21.248 76.8872C21.4238 76.8677 21.6094 76.8677 21.8047 76.8872C22.1367 77.981 22.4688 78.9966 22.8008 79.9341C23.1523 80.8521 23.5039 81.7505 23.8555 82.6294C24.207 83.4888 24.5781 84.3579 24.9688 85.2368C25.3594 86.0962 25.7598 87.0239 26.1699 88.02C26.5996 89.0356 26.9902 89.9634 27.3418 90.8032C27.6934 91.6431 27.9863 92.3755 28.2207 93.0005C28.2598 92.2974 28.2988 91.5161 28.3379 90.6567C28.377 89.7778 28.4062 88.8794 28.4258 87.9614C28.4453 87.0435 28.4551 86.145 28.4551 85.2661C28.4746 84.3677 28.4844 83.5376 28.4844 82.7759C28.5039 81.9946 28.5137 81.311 28.5137 80.7251C28.5137 80.1392 28.5137 79.7095 28.5137 79.436C28.5137 78.9478 28.6406 78.5474 28.8945 78.2349C29.168 77.9028 29.4707 77.6392 29.8027 77.4438C30.1543 77.2485 30.4961 77.1118 30.8281 77.0337C31.1797 76.9556 31.4336 76.9165 31.5898 76.9165C31.707 76.9165 31.8047 76.9263 31.8828 76.9458C31.9609 76.9653 32.0293 76.9849 32.0879 77.0044C32.166 77.0239 32.2246 77.0532 32.2637 77.0923C31.9316 77.5415 31.6875 78.02 31.5312 78.5278C31.375 79.0356 31.2578 79.5435 31.1797 80.0513C31.1211 80.5591 31.0918 81.0571 31.0918 81.5454C31.0918 82.0337 31.0918 82.4829 31.0918 82.8931C31.0723 83.8696 31.043 85.0708 31.0039 86.4966C30.9648 87.7271 30.9355 89.2603 30.916 91.0962C30.8965 92.9321 30.8867 95.1294 30.8867 97.688C30.4766 98.02 30.0957 98.3032 29.7441 98.5376C29.3926 98.772 28.9434 98.8501 28.3965 98.772C28.1621 98.7524 27.9668 98.6548 27.8105 98.479C27.6738 98.3032 27.5273 98.0493 27.3711 97.7173C27.2344 97.4048 27.0879 97.0142 26.9316 96.5454C26.7754 96.0571 26.5703 95.4907 26.3164 94.8462C25.8672 93.7134 25.4082 92.5708 24.9395 91.4185C24.4707 90.2661 24.0215 89.1724 23.5918 88.1372C23.1621 87.1021 22.7617 86.1646 22.3906 85.3247C22.0391 84.4653 21.7461 83.772 21.5117 83.2446C21.1602 85.9204 20.9941 88.2251 21.0137 90.1587C21.0527 92.0923 21.1211 93.5083 21.2188 94.4067C21.2773 94.7974 21.3457 95.1978 21.4238 95.6079C21.502 95.9595 21.5996 96.3501 21.7168 96.7798C21.834 97.229 21.9902 97.6782 22.1855 98.1274C21.8535 98.4595 21.5215 98.6841 21.1895 98.8013C20.877 98.9185 20.5938 98.9966 20.3398 99.0356C20.0469 99.0747 19.7637 99.0649 19.4902 99.0063C19.3535 98.9673 19.2168 98.8306 19.0801 98.5962C18.9629 98.3813 18.8555 98.1079 18.7578 97.7759C18.6602 97.4438 18.5723 97.0728 18.4941 96.6626C18.4355 96.272 18.3965 95.8716 18.377 95.4614ZM42.2832 95.0513C42.3223 95.188 42.3809 95.3149 42.459 95.4321C42.5176 95.5298 42.5957 95.6274 42.6934 95.7251C42.8105 95.8032 42.9473 95.8521 43.1035 95.8716C42.9668 96.145 42.8301 96.3306 42.6934 96.4282C42.6152 96.4868 42.5469 96.5259 42.4883 96.5454C42.3125 96.604 42.0488 96.6333 41.6973 96.6333C41.3457 96.6333 41.0039 96.5259 40.6719 96.311C40.5547 96.2134 40.4473 96.0669 40.3496 95.8716C40.252 95.7153 40.1641 95.5005 40.0859 95.2271C40.0273 94.9341 39.9785 94.563 39.9395 94.1138C39.666 94.6997 39.3535 95.1685 39.002 95.52C38.6699 95.8521 38.3379 96.0962 38.0059 96.2524C37.6348 96.4673 37.2539 96.5942 36.8633 96.6333C36.375 96.6724 35.9062 96.5942 35.457 96.3989C35.0273 96.1841 34.6562 95.8716 34.3438 95.4614C34.0508 95.0317 33.8262 94.5142 33.6699 93.9087C33.5137 93.3032 33.4648 92.6196 33.5234 91.8579C33.582 91.0571 33.7383 90.3442 33.9922 89.7192C34.2461 89.0942 34.5488 88.5376 34.9004 88.0493C35.252 87.561 35.623 87.1509 36.0137 86.8188C36.4043 86.4673 36.7754 86.1841 37.127 85.9692C37.498 85.7349 37.8105 85.5688 38.0645 85.4712C38.3379 85.354 38.5137 85.2856 38.5918 85.2661C38.8066 85.2075 38.9922 85.188 39.1484 85.2075C39.3047 85.2271 39.4414 85.3149 39.5586 85.4712C39.5977 85.5298 39.6465 85.5981 39.7051 85.6763C39.7441 85.7544 39.793 85.8618 39.8516 85.9985C39.9102 86.1157 39.959 86.2524 39.998 86.4087C39.5293 86.6235 39.0898 86.8677 38.6797 87.1411C38.2695 87.395 37.8887 87.7075 37.5371 88.0786C37.2051 88.4497 36.9121 88.8989 36.6582 89.4263C36.4043 89.9536 36.209 90.5981 36.0723 91.3599C35.877 92.3169 35.9258 93.0884 36.2188 93.6743C36.5312 94.2603 36.9512 94.5044 37.4785 94.4067C37.791 94.3091 38.0938 94.1235 38.3867 93.8501C38.6406 93.6157 38.9043 93.2642 39.1777 92.7954C39.4707 92.3267 39.7441 91.6821 39.998 90.8618C40.0957 89.6899 40.1738 88.772 40.2324 88.1079C40.3105 87.4243 40.3789 86.9067 40.4375 86.5552C40.5156 86.145 40.5742 85.8716 40.6133 85.7349C40.6719 85.6372 40.7891 85.5493 40.9648 85.4712C41.1406 85.3735 41.3359 85.2954 41.5508 85.2368C41.7656 85.1782 41.9609 85.1489 42.1367 85.1489C42.3125 85.1294 42.4297 85.1294 42.4883 85.1489C42.5273 85.1685 42.5469 85.4126 42.5469 85.8813C42.5469 86.3306 42.5273 86.9067 42.4883 87.6099C42.4688 88.2935 42.4395 89.0454 42.4004 89.8657C42.3613 90.6665 42.3223 91.4282 42.2832 92.1509C42.2637 92.8735 42.2441 93.5083 42.2246 94.0552C42.2246 94.5825 42.2441 94.9146 42.2832 95.0513ZM59.1289 92.854C59.1289 93.0688 59.0508 93.4009 58.8945 93.8501C58.7578 94.2798 58.5234 94.7192 58.1914 95.1685C57.8594 95.5981 57.4297 95.979 56.9023 96.311C56.3945 96.6431 55.7695 96.8091 55.0273 96.8091C53.9727 96.8091 53.084 96.5259 52.3613 95.9595C51.6582 95.3735 51.1602 94.5435 50.8672 93.4692C50.6328 92.5708 50.5645 91.6138 50.6621 90.5981C50.7793 89.563 51.0625 88.606 51.5117 87.7271C51.9609 86.8481 52.5859 86.106 53.3867 85.5005C54.1875 84.8755 55.1641 84.5337 56.3164 84.4751C56.9023 84.4556 57.3906 84.563 57.7812 84.7974C58.1719 85.0317 58.4746 85.3345 58.6895 85.7056C58.9043 86.0767 59.0312 86.4868 59.0703 86.936C59.1094 87.3657 59.0605 87.7759 58.9238 88.1665C58.8066 88.5571 58.6113 88.8892 58.3379 89.1626C58.084 89.4165 57.752 89.5532 57.3418 89.5728C56.9316 89.6118 56.5898 89.563 56.3164 89.4263C56.0625 89.27 55.8574 89.0845 55.7012 88.8696C55.5645 88.6548 55.4668 88.4302 55.4082 88.1958C55.3691 87.9614 55.3691 87.7563 55.4082 87.5806C55.4668 87.3267 55.5645 87.0923 55.7012 86.8774C55.8184 86.6821 55.9844 86.4868 56.1992 86.2915C56.4336 86.0962 56.7363 85.9399 57.1074 85.8228C57.0488 85.7837 56.9902 85.7642 56.9316 85.7642C56.873 85.7642 56.8145 85.7544 56.7559 85.7349C56.6777 85.7349 56.6191 85.7251 56.5801 85.7056C56.2676 85.7056 55.9062 85.813 55.4961 86.0278C55.1055 86.2427 54.7246 86.5845 54.3535 87.0532C54.002 87.522 53.6992 88.1274 53.4453 88.8696C53.2109 89.5923 53.0938 90.4712 53.0938 91.5063C53.0938 91.9556 53.1426 92.4048 53.2402 92.854C53.3379 93.2837 53.4844 93.6743 53.6797 94.0259C53.8945 94.3579 54.1484 94.6313 54.4414 94.8462C54.7539 95.0415 55.1152 95.1392 55.5254 95.1392C55.9941 95.1392 56.4043 95.0415 56.7559 94.8462C57.127 94.6313 57.4395 94.3872 57.6934 94.1138C57.9473 93.8403 58.1426 93.5669 58.2793 93.2935C58.4355 93.02 58.543 92.8149 58.6016 92.6782C58.6602 92.561 58.7578 92.5024 58.8945 92.5024C59.0508 92.5024 59.1289 92.6196 59.1289 92.854ZM69.2949 95.0513C69.334 95.188 69.3926 95.3149 69.4707 95.4321C69.5293 95.5298 69.6074 95.6274 69.7051 95.7251C69.8223 95.8032 69.959 95.8521 70.1152 95.8716C69.9785 96.145 69.8418 96.3306 69.7051 96.4282C69.627 96.4868 69.5586 96.5259 69.5 96.5454C69.3242 96.604 69.0605 96.6333 68.709 96.6333C68.3574 96.6333 68.0156 96.5259 67.6836 96.311C67.5664 96.2134 67.459 96.0669 67.3613 95.8716C67.2637 95.7153 67.1758 95.5005 67.0977 95.2271C67.0391 94.9341 66.9902 94.563 66.9512 94.1138C66.6777 94.6997 66.3652 95.1685 66.0137 95.52C65.6816 95.8521 65.3496 96.0962 65.0176 96.2524C64.6465 96.4673 64.2656 96.5942 63.875 96.6333C63.3867 96.6724 62.918 96.5942 62.4688 96.3989C62.0391 96.1841 61.668 95.8716 61.3555 95.4614C61.0625 95.0317 60.8379 94.5142 60.6816 93.9087C60.5254 93.3032 60.4766 92.6196 60.5352 91.8579C60.5938 91.0571 60.75 90.3442 61.0039 89.7192C61.2578 89.0942 61.5605 88.5376 61.9121 88.0493C62.2637 87.561 62.6348 87.1509 63.0254 86.8188C63.416 86.4673 63.7871 86.1841 64.1387 85.9692C64.5098 85.7349 64.8223 85.5688 65.0762 85.4712C65.3496 85.354 65.5254 85.2856 65.6035 85.2661C65.8184 85.2075 66.0039 85.188 66.1602 85.2075C66.3164 85.2271 66.4531 85.3149 66.5703 85.4712C66.6094 85.5298 66.6582 85.5981 66.7168 85.6763C66.7559 85.7544 66.8047 85.8618 66.8633 85.9985C66.9219 86.1157 66.9707 86.2524 67.0098 86.4087C66.541 86.6235 66.1016 86.8677 65.6914 87.1411C65.2812 87.395 64.9004 87.7075 64.5488 88.0786C64.2168 88.4497 63.9238 88.8989 63.6699 89.4263C63.416 89.9536 63.2207 90.5981 63.084 91.3599C62.8887 92.3169 62.9375 93.0884 63.2305 93.6743C63.543 94.2603 63.9629 94.5044 64.4902 94.4067C64.8027 94.3091 65.1055 94.1235 65.3984 93.8501C65.6523 93.6157 65.916 93.2642 66.1895 92.7954C66.4824 92.3267 66.7559 91.6821 67.0098 90.8618C67.1074 89.6899 67.1855 88.772 67.2441 88.1079C67.3223 87.4243 67.3906 86.9067 67.4492 86.5552C67.5273 86.145 67.5859 85.8716 67.625 85.7349C67.6836 85.6372 67.8008 85.5493 67.9766 85.4712C68.1523 85.3735 68.3477 85.2954 68.5625 85.2368C68.7773 85.1782 68.9727 85.1489 69.1484 85.1489C69.3242 85.1294 69.4414 85.1294 69.5 85.1489C69.5391 85.1685 69.5586 85.4126 69.5586 85.8813C69.5586 86.3306 69.5391 86.9067 69.5 87.6099C69.4805 88.2935 69.4512 89.0454 69.4121 89.8657C69.373 90.6665 69.334 91.4282 69.2949 92.1509C69.2754 92.8735 69.2559 93.5083 69.2363 94.0552C69.2363 94.5825 69.2559 94.9146 69.2949 95.0513ZM71.9902 86.1743C71.9902 86.0571 72.1465 85.9302 72.459 85.7935C72.7715 85.6567 73.1133 85.5493 73.4844 85.4712C73.875 85.3735 74.2266 85.3247 74.5391 85.3247C74.8711 85.3052 75.0371 85.3735 75.0371 85.5298C75.0371 85.8228 75.0176 86.2427 74.9785 86.7896C74.9395 87.3169 74.8906 87.8833 74.832 88.4888C74.7734 89.0747 74.7148 89.6704 74.6562 90.2759C74.5977 90.8618 74.5586 91.3599 74.5391 91.77C74.5 92.1997 74.4609 92.6685 74.4219 93.1763C74.3828 93.606 74.3535 94.0845 74.334 94.6118C74.3145 95.1392 74.3145 95.6763 74.334 96.2231C74.334 96.3208 74.2363 96.4185 74.041 96.5161C73.8457 96.6138 73.6309 96.6821 73.3965 96.7212C73.1621 96.7798 72.9375 96.8091 72.7227 96.8091C72.5078 96.8091 72.3906 96.77 72.3711 96.6919C72.332 96.6138 72.293 96.4771 72.2539 96.2817C72.2148 96.0864 72.1758 95.813 72.1367 95.4614C72.0977 95.0903 72.0684 94.6216 72.0488 94.0552C72.0293 93.4692 72.0391 92.7661 72.0781 91.9458C72.1562 90.3247 72.166 89.0747 72.1074 88.1958C72.0488 87.2974 72.0098 86.6235 71.9902 86.1743ZM74.041 80.3442C74.4316 80.3442 74.8027 80.4614 75.1543 80.6958C75.5059 80.9302 75.6816 81.2427 75.6816 81.6333C75.6816 81.9263 75.6035 82.2095 75.4473 82.4829C75.3105 82.7563 75.1348 83.0005 74.9199 83.2153C74.7051 83.4302 74.4609 83.606 74.1875 83.7427C73.9141 83.8599 73.6602 83.9185 73.4258 83.9185C73.1133 83.9185 72.8594 83.8696 72.6641 83.772C72.4688 83.6548 72.3125 83.5278 72.1953 83.3911C72.0977 83.2349 72.0293 83.0688 71.9902 82.8931C71.9512 82.7173 71.9316 82.5513 71.9316 82.395C71.9316 82.1997 71.9609 81.9849 72.0195 81.7505C72.0781 81.4966 72.1855 81.272 72.3418 81.0767C72.498 80.8618 72.7129 80.686 72.9863 80.5493C73.2598 80.4126 73.6113 80.3442 74.041 80.3442ZM73.3086 83.0688C73.4258 83.0688 73.5527 83.0298 73.6895 82.9517C73.8457 82.854 73.9824 82.7466 74.0996 82.6294C74.2363 82.5122 74.3438 82.3853 74.4219 82.2485C74.5195 82.1118 74.5684 81.9946 74.5684 81.897C74.5684 81.7407 74.4902 81.6626 74.334 81.6626C74.2363 81.6626 74.1094 81.7017 73.9531 81.7798C73.8164 81.8579 73.6797 81.9556 73.543 82.0728C73.4062 82.1704 73.2891 82.2876 73.1914 82.4243C73.1133 82.5415 73.0742 82.6587 73.0742 82.7759C73.0742 82.9712 73.1523 83.0688 73.3086 83.0688ZM78.377 97.3364C78.123 97.1411 77.918 96.9653 77.7617 96.8091C77.6055 96.6528 77.4785 96.5161 77.3809 96.3989C77.2637 96.2622 77.1758 96.1353 77.1172 96.0181C76.9609 95.7446 76.9121 95.4517 76.9707 95.1392C77.0293 94.8267 77.1465 94.4751 77.3223 94.0845C77.4785 93.7524 77.7324 93.2837 78.084 92.6782C78.4551 92.0728 78.8848 91.4087 79.373 90.686C79.0996 90.2368 78.8164 89.7583 78.5234 89.2505C78.25 88.8013 77.9473 88.2837 77.6152 87.6978C77.3027 87.0923 76.9512 86.4478 76.5605 85.7642C76.8145 85.5884 77.0488 85.4712 77.2637 85.4126C77.498 85.3345 77.7031 85.2954 77.8789 85.2954C78.0938 85.2954 78.2793 85.3149 78.4355 85.354C78.7871 85.5103 79.0996 85.9009 79.373 86.5259C79.666 87.1313 80.0664 87.9419 80.5742 88.9575C80.8281 88.606 81.1113 88.2251 81.4238 87.8149C81.6973 87.4634 82 87.0532 82.332 86.5845C82.6836 86.0962 83.0742 85.5688 83.5039 85.0024C83.6211 85.0415 83.7285 85.0708 83.8262 85.0903C83.9434 85.1099 84.0508 85.1392 84.1484 85.1782C84.2461 85.2173 84.3438 85.2563 84.4414 85.2954C84.5195 85.3345 84.5977 85.3931 84.6758 85.4712C84.793 85.5884 84.9297 85.7739 85.0859 86.0278C84.5781 86.7114 84.1191 87.3462 83.709 87.9321C83.2988 88.5181 82.9375 89.0259 82.625 89.4556C82.2734 89.9634 81.9512 90.4224 81.6582 90.8325C81.6582 90.8325 81.6387 90.8716 81.5996 90.9497C81.6191 90.9692 81.6289 90.9888 81.6289 91.0083C81.6289 91.0083 81.6387 91.0181 81.6582 91.0376C81.9316 91.4868 82.2441 91.9946 82.5957 92.561C82.9082 93.0493 83.2891 93.6353 83.7383 94.3188C84.1875 95.0024 84.7051 95.7837 85.291 96.6626C84.9785 96.7798 84.7148 96.8579 84.5 96.897C84.3828 96.9165 84.2754 96.9263 84.1777 96.9263C84.0801 96.9458 83.9727 96.9458 83.8555 96.9263C83.7578 96.9067 83.6309 96.8774 83.4746 96.8384C83.3379 96.8188 83.1914 96.7798 83.0352 96.7212C82.7227 96.2329 82.4199 95.7544 82.127 95.2856C81.834 94.7974 81.5703 94.3579 81.3359 93.9673C81.0625 93.5181 80.8086 93.0884 80.5742 92.6782C80.2812 93.186 79.998 93.7036 79.7246 94.231C79.4902 94.6802 79.2461 95.188 78.9922 95.7544C78.7383 96.3013 78.5332 96.8286 78.377 97.3364ZM94.6953 95.0513C94.7344 95.188 94.793 95.3149 94.8711 95.4321C94.9297 95.5298 95.0078 95.6274 95.1055 95.7251C95.2227 95.8032 95.3594 95.8521 95.5156 95.8716C95.3789 96.145 95.2422 96.3306 95.1055 96.4282C95.0273 96.4868 94.959 96.5259 94.9004 96.5454C94.7246 96.604 94.4609 96.6333 94.1094 96.6333C93.7578 96.6333 93.416 96.5259 93.084 96.311C92.9668 96.2134 92.8594 96.0669 92.7617 95.8716C92.6641 95.7153 92.5762 95.5005 92.498 95.2271C92.4395 94.9341 92.3906 94.563 92.3516 94.1138C92.0781 94.6997 91.7656 95.1685 91.4141 95.52C91.082 95.8521 90.75 96.0962 90.418 96.2524C90.0469 96.4673 89.666 96.5942 89.2754 96.6333C88.7871 96.6724 88.3184 96.5942 87.8691 96.3989C87.4395 96.1841 87.0684 95.8716 86.7559 95.4614C86.4629 95.0317 86.2383 94.5142 86.082 93.9087C85.9258 93.3032 85.877 92.6196 85.9355 91.8579C85.9941 91.0571 86.1504 90.3442 86.4043 89.7192C86.6582 89.0942 86.9609 88.5376 87.3125 88.0493C87.6641 87.561 88.0352 87.1509 88.4258 86.8188C88.8164 86.4673 89.1875 86.1841 89.5391 85.9692C89.9102 85.7349 90.2227 85.5688 90.4766 85.4712C90.75 85.354 90.9258 85.2856 91.0039 85.2661C91.2188 85.2075 91.4043 85.188 91.5605 85.2075C91.7168 85.2271 91.8535 85.3149 91.9707 85.4712C92.0098 85.5298 92.0586 85.5981 92.1172 85.6763C92.1562 85.7544 92.2051 85.8618 92.2637 85.9985C92.3223 86.1157 92.3711 86.2524 92.4102 86.4087C91.9414 86.6235 91.502 86.8677 91.0918 87.1411C90.6816 87.395 90.3008 87.7075 89.9492 88.0786C89.6172 88.4497 89.3242 88.8989 89.0703 89.4263C88.8164 89.9536 88.6211 90.5981 88.4844 91.3599C88.2891 92.3169 88.3379 93.0884 88.6309 93.6743C88.9434 94.2603 89.3633 94.5044 89.8906 94.4067C90.2031 94.3091 90.5059 94.1235 90.7988 93.8501C91.0527 93.6157 91.3164 93.2642 91.5898 92.7954C91.8828 92.3267 92.1562 91.6821 92.4102 90.8618C92.5078 89.6899 92.5859 88.772 92.6445 88.1079C92.7227 87.4243 92.791 86.9067 92.8496 86.5552C92.9277 86.145 92.9863 85.8716 93.0254 85.7349C93.084 85.6372 93.2012 85.5493 93.377 85.4712C93.5527 85.3735 93.748 85.2954 93.9629 85.2368C94.1777 85.1782 94.373 85.1489 94.5488 85.1489C94.7246 85.1294 94.8418 85.1294 94.9004 85.1489C94.9395 85.1685 94.959 85.4126 94.959 85.8813C94.959 86.3306 94.9395 86.9067 94.9004 87.6099C94.8809 88.2935 94.8516 89.0454 94.8125 89.8657C94.7734 90.6665 94.7344 91.4282 94.6953 92.1509C94.6758 92.8735 94.6562 93.5083 94.6367 94.0552C94.6367 94.5825 94.6562 94.9146 94.6953 95.0513Z" fill="black"/>
</svg>
