<svg width="122" height="40" viewBox="0 0 122 40" fill="none" xmlns="http://www.w3.org/2000/svg">
<path d="M39.377 31.3846C39.3574 30.994 39.3477 30.4569 39.3477 29.7733C39.3672 29.0897 39.3867 28.3378 39.4062 27.5175C39.4453 26.6776 39.4844 25.7987 39.5234 24.8807C39.5625 23.9432 39.5918 23.0253 39.6113 22.1268C39.6504 21.2284 39.6797 20.3788 39.6992 19.578C39.7383 18.7577 39.7676 18.0448 39.7871 17.4393C39.8066 17.0096 39.8262 16.5897 39.8457 16.1796C39.8652 15.828 39.875 15.4471 39.875 15.037C39.875 14.6268 39.8555 14.2557 39.8164 13.9237C39.9727 13.8651 40.0996 13.8065 40.1973 13.7479C40.2949 13.6893 40.3926 13.6307 40.4902 13.5721C40.5879 13.494 40.6953 13.4159 40.8125 13.3378C40.9492 13.2401 41.1348 13.1425 41.3691 13.0448C41.5059 12.9862 41.6523 12.9374 41.8086 12.8983C41.9453 12.8593 42.0918 12.83 42.248 12.8104C42.4238 12.7909 42.6094 12.7909 42.8047 12.8104C43.1367 13.9042 43.4688 14.9198 43.8008 15.8573C44.1523 16.7753 44.5039 17.6737 44.8555 18.5526C45.207 19.412 45.5781 20.2811 45.9688 21.16C46.3594 22.0194 46.7598 22.9471 47.1699 23.9432C47.5996 24.9589 47.9902 25.8866 48.3418 26.7264C48.6934 27.5663 48.9863 28.2987 49.2207 28.9237C49.2598 28.2206 49.2988 27.4393 49.3379 26.58C49.377 25.701 49.4062 24.8026 49.4258 23.8846C49.4453 22.9667 49.4551 22.0682 49.4551 21.1893C49.4746 20.2909 49.4844 19.4608 49.4844 18.6991C49.5039 17.9178 49.5137 17.2343 49.5137 16.6483C49.5137 16.0624 49.5137 15.6327 49.5137 15.3593C49.5137 14.871 49.6406 14.4706 49.8945 14.1581C50.168 13.826 50.4707 13.5624 50.8027 13.3671C51.1543 13.1718 51.4961 13.035 51.8281 12.9569C52.1797 12.8788 52.4336 12.8397 52.5898 12.8397C52.707 12.8397 52.8047 12.8495 52.8828 12.869C52.9609 12.8885 53.0293 12.9081 53.0879 12.9276C53.166 12.9471 53.2246 12.9764 53.2637 13.0155C52.9316 13.4647 52.6875 13.9432 52.5312 14.451C52.375 14.9589 52.2578 15.4667 52.1797 15.9745C52.1211 16.4823 52.0918 16.9803 52.0918 17.4686C52.0918 17.9569 52.0918 18.4061 52.0918 18.8163C52.0723 19.7928 52.043 20.994 52.0039 22.4198C51.9648 23.6503 51.9355 25.1835 51.916 27.0194C51.8965 28.8553 51.8867 31.0526 51.8867 33.6112C51.4766 33.9432 51.0957 34.2264 50.7441 34.4608C50.3926 34.6952 49.9434 34.7733 49.3965 34.6952C49.1621 34.6757 48.9668 34.578 48.8105 34.4022C48.6738 34.2264 48.5273 33.9725 48.3711 33.6405C48.2344 33.328 48.0879 32.9374 47.9316 32.4686C47.7754 31.9803 47.5703 31.4139 47.3164 30.7694C46.8672 29.6366 46.4082 28.494 45.9395 27.3417C45.4707 26.1893 45.0215 25.0956 44.5918 24.0604C44.1621 23.0253 43.7617 22.0878 43.3906 21.2479C43.0391 20.3885 42.7461 19.6952 42.5117 19.1678C42.1602 21.8436 41.9941 24.1483 42.0137 26.0819C42.0527 28.0155 42.1211 29.4315 42.2188 30.33C42.2773 30.7206 42.3457 31.121 42.4238 31.5311C42.502 31.8827 42.5996 32.2733 42.7168 32.703C42.834 33.1522 42.9902 33.6014 43.1855 34.0507C42.8535 34.3827 42.5215 34.6073 42.1895 34.7245C41.877 34.8417 41.5938 34.9198 41.3398 34.9589C41.0469 34.9979 40.7637 34.9882 40.4902 34.9296C40.3535 34.8905 40.2168 34.7538 40.0801 34.5194C39.9629 34.3046 39.8555 34.0311 39.7578 33.6991C39.6602 33.3671 39.5723 32.996 39.4941 32.5858C39.4355 32.1952 39.3965 31.7948 39.377 31.3846ZM63.2832 30.9745C63.3223 31.1112 63.3809 31.2382 63.459 31.3553C63.5176 31.453 63.5957 31.5507 63.6934 31.6483C63.8105 31.7264 63.9473 31.7753 64.1035 31.7948C63.9668 32.0682 63.8301 32.2538 63.6934 32.3514C63.6152 32.41 63.5469 32.4491 63.4883 32.4686C63.3125 32.5272 63.0488 32.5565 62.6973 32.5565C62.3457 32.5565 62.0039 32.4491 61.6719 32.2343C61.5547 32.1366 61.4473 31.9901 61.3496 31.7948C61.252 31.6385 61.1641 31.4237 61.0859 31.1503C61.0273 30.8573 60.9785 30.4862 60.9395 30.037C60.666 30.6229 60.3535 31.0917 60.002 31.4432C59.6699 31.7753 59.3379 32.0194 59.0059 32.1757C58.6348 32.3905 58.2539 32.5175 57.8633 32.5565C57.375 32.5956 56.9062 32.5175 56.457 32.3221C56.0273 32.1073 55.6562 31.7948 55.3438 31.3846C55.0508 30.955 54.8262 30.4374 54.6699 29.8319C54.5137 29.2264 54.4648 28.5428 54.5234 27.7811C54.582 26.9803 54.7383 26.2675 54.9922 25.6425C55.2461 25.0175 55.5488 24.4608 55.9004 23.9725C56.252 23.4843 56.623 23.0741 57.0137 22.7421C57.4043 22.3905 57.7754 22.1073 58.127 21.8925C58.498 21.6581 58.8105 21.4921 59.0645 21.3944C59.3379 21.2772 59.5137 21.2089 59.5918 21.1893C59.8066 21.1307 59.9922 21.1112 60.1484 21.1307C60.3047 21.1503 60.4414 21.2382 60.5586 21.3944C60.5977 21.453 60.6465 21.5214 60.7051 21.5995C60.7441 21.6776 60.793 21.785 60.8516 21.9218C60.9102 22.0389 60.959 22.1757 60.998 22.3319C60.5293 22.5468 60.0898 22.7909 59.6797 23.0643C59.2695 23.3182 58.8887 23.6307 58.5371 24.0018C58.2051 24.3729 57.9121 24.8221 57.6582 25.3495C57.4043 25.8768 57.209 26.5214 57.0723 27.2831C56.877 28.2401 56.9258 29.0116 57.2188 29.5975C57.5312 30.1835 57.9512 30.4276 58.4785 30.33C58.791 30.2323 59.0938 30.0468 59.3867 29.7733C59.6406 29.5389 59.9043 29.1874 60.1777 28.7186C60.4707 28.2499 60.7441 27.6053 60.998 26.785C61.0957 25.6132 61.1738 24.6952 61.2324 24.0311C61.3105 23.3475 61.3789 22.83 61.4375 22.4784C61.5156 22.0682 61.5742 21.7948 61.6133 21.6581C61.6719 21.5604 61.7891 21.4725 61.9648 21.3944C62.1406 21.2968 62.3359 21.2186 62.5508 21.16C62.7656 21.1014 62.9609 21.0721 63.1367 21.0721C63.3125 21.0526 63.4297 21.0526 63.4883 21.0721C63.5273 21.0917 63.5469 21.3358 63.5469 21.8046C63.5469 22.2538 63.5273 22.83 63.4883 23.5331C63.4688 24.2167 63.4395 24.9686 63.4004 25.7889C63.3613 26.5897 63.3223 27.3514 63.2832 28.0741C63.2637 28.7968 63.2441 29.4315 63.2246 29.9784C63.2246 30.5057 63.2441 30.8378 63.2832 30.9745ZM80.1289 28.7772C80.1289 28.9921 80.0508 29.3241 79.8945 29.7733C79.7578 30.203 79.5234 30.6425 79.1914 31.0917C78.8594 31.5214 78.4297 31.9022 77.9023 32.2343C77.3945 32.5663 76.7695 32.7323 76.0273 32.7323C74.9727 32.7323 74.084 32.4491 73.3613 31.8827C72.6582 31.2968 72.1602 30.4667 71.8672 29.3925C71.6328 28.494 71.5645 27.537 71.6621 26.5214C71.7793 25.4862 72.0625 24.5292 72.5117 23.6503C72.9609 22.7714 73.5859 22.0292 74.3867 21.4237C75.1875 20.7987 76.1641 20.4569 77.3164 20.3983C77.9023 20.3788 78.3906 20.4862 78.7812 20.7206C79.1719 20.955 79.4746 21.2577 79.6895 21.6288C79.9043 21.9999 80.0312 22.41 80.0703 22.8593C80.1094 23.2889 80.0605 23.6991 79.9238 24.0897C79.8066 24.4803 79.6113 24.8124 79.3379 25.0858C79.084 25.3397 78.752 25.4764 78.3418 25.496C77.9316 25.535 77.5898 25.4862 77.3164 25.3495C77.0625 25.1932 76.8574 25.0077 76.7012 24.7928C76.5645 24.578 76.4668 24.3534 76.4082 24.119C76.3691 23.8846 76.3691 23.6796 76.4082 23.5038C76.4668 23.2499 76.5645 23.0155 76.7012 22.8007C76.8184 22.6053 76.9844 22.41 77.1992 22.2147C77.4336 22.0194 77.7363 21.8632 78.1074 21.746C78.0488 21.7069 77.9902 21.6874 77.9316 21.6874C77.873 21.6874 77.8145 21.6776 77.7559 21.6581C77.6777 21.6581 77.6191 21.6483 77.5801 21.6288C77.2676 21.6288 76.9062 21.7362 76.4961 21.951C76.1055 22.1659 75.7246 22.5077 75.3535 22.9764C75.002 23.4452 74.6992 24.0507 74.4453 24.7928C74.2109 25.5155 74.0938 26.3944 74.0938 27.4296C74.0938 27.8788 74.1426 28.328 74.2402 28.7772C74.3379 29.2069 74.4844 29.5975 74.6797 29.9491C74.8945 30.2811 75.1484 30.5546 75.4414 30.7694C75.7539 30.9647 76.1152 31.0624 76.5254 31.0624C76.9941 31.0624 77.4043 30.9647 77.7559 30.7694C78.127 30.5546 78.4395 30.3104 78.6934 30.037C78.9473 29.7635 79.1426 29.4901 79.2793 29.2167C79.4355 28.9432 79.543 28.7382 79.6016 28.6014C79.6602 28.4843 79.7578 28.4257 79.8945 28.4257C80.0508 28.4257 80.1289 28.5428 80.1289 28.7772ZM90.2949 30.9745C90.334 31.1112 90.3926 31.2382 90.4707 31.3553C90.5293 31.453 90.6074 31.5507 90.7051 31.6483C90.8223 31.7264 90.959 31.7753 91.1152 31.7948C90.9785 32.0682 90.8418 32.2538 90.7051 32.3514C90.627 32.41 90.5586 32.4491 90.5 32.4686C90.3242 32.5272 90.0605 32.5565 89.709 32.5565C89.3574 32.5565 89.0156 32.4491 88.6836 32.2343C88.5664 32.1366 88.459 31.9901 88.3613 31.7948C88.2637 31.6385 88.1758 31.4237 88.0977 31.1503C88.0391 30.8573 87.9902 30.4862 87.9512 30.037C87.6777 30.6229 87.3652 31.0917 87.0137 31.4432C86.6816 31.7753 86.3496 32.0194 86.0176 32.1757C85.6465 32.3905 85.2656 32.5175 84.875 32.5565C84.3867 32.5956 83.918 32.5175 83.4688 32.3221C83.0391 32.1073 82.668 31.7948 82.3555 31.3846C82.0625 30.955 81.8379 30.4374 81.6816 29.8319C81.5254 29.2264 81.4766 28.5428 81.5352 27.7811C81.5938 26.9803 81.75 26.2675 82.0039 25.6425C82.2578 25.0175 82.5605 24.4608 82.9121 23.9725C83.2637 23.4843 83.6348 23.0741 84.0254 22.7421C84.416 22.3905 84.7871 22.1073 85.1387 21.8925C85.5098 21.6581 85.8223 21.4921 86.0762 21.3944C86.3496 21.2772 86.5254 21.2089 86.6035 21.1893C86.8184 21.1307 87.0039 21.1112 87.1602 21.1307C87.3164 21.1503 87.4531 21.2382 87.5703 21.3944C87.6094 21.453 87.6582 21.5214 87.7168 21.5995C87.7559 21.6776 87.8047 21.785 87.8633 21.9218C87.9219 22.0389 87.9707 22.1757 88.0098 22.3319C87.541 22.5468 87.1016 22.7909 86.6914 23.0643C86.2812 23.3182 85.9004 23.6307 85.5488 24.0018C85.2168 24.3729 84.9238 24.8221 84.6699 25.3495C84.416 25.8768 84.2207 26.5214 84.084 27.2831C83.8887 28.2401 83.9375 29.0116 84.2305 29.5975C84.543 30.1835 84.9629 30.4276 85.4902 30.33C85.8027 30.2323 86.1055 30.0468 86.3984 29.7733C86.6523 29.5389 86.916 29.1874 87.1895 28.7186C87.4824 28.2499 87.7559 27.6053 88.0098 26.785C88.1074 25.6132 88.1855 24.6952 88.2441 24.0311C88.3223 23.3475 88.3906 22.83 88.4492 22.4784C88.5273 22.0682 88.5859 21.7948 88.625 21.6581C88.6836 21.5604 88.8008 21.4725 88.9766 21.3944C89.1523 21.2968 89.3477 21.2186 89.5625 21.16C89.7773 21.1014 89.9727 21.0721 90.1484 21.0721C90.3242 21.0526 90.4414 21.0526 90.5 21.0721C90.5391 21.0917 90.5586 21.3358 90.5586 21.8046C90.5586 22.2538 90.5391 22.83 90.5 23.5331C90.4805 24.2167 90.4512 24.9686 90.4121 25.7889C90.373 26.5897 90.334 27.3514 90.2949 28.0741C90.2754 28.7968 90.2559 29.4315 90.2363 29.9784C90.2363 30.5057 90.2559 30.8378 90.2949 30.9745ZM92.9902 22.0975C92.9902 21.9803 93.1465 21.8534 93.459 21.7167C93.7715 21.58 94.1133 21.4725 94.4844 21.3944C94.875 21.2968 95.2266 21.2479 95.5391 21.2479C95.8711 21.2284 96.0371 21.2968 96.0371 21.453C96.0371 21.746 96.0176 22.1659 95.9785 22.7128C95.9395 23.2401 95.8906 23.8065 95.832 24.412C95.7734 24.9979 95.7148 25.5936 95.6562 26.1991C95.5977 26.785 95.5586 27.2831 95.5391 27.6932C95.5 28.1229 95.4609 28.5917 95.4219 29.0995C95.3828 29.5292 95.3535 30.0077 95.334 30.535C95.3145 31.0624 95.3145 31.5995 95.334 32.1464C95.334 32.244 95.2363 32.3417 95.041 32.4393C94.8457 32.537 94.6309 32.6053 94.3965 32.6444C94.1621 32.703 93.9375 32.7323 93.7227 32.7323C93.5078 32.7323 93.3906 32.6932 93.3711 32.6151C93.332 32.537 93.293 32.4003 93.2539 32.205C93.2148 32.0096 93.1758 31.7362 93.1367 31.3846C93.0977 31.0135 93.0684 30.5448 93.0488 29.9784C93.0293 29.3925 93.0391 28.6893 93.0781 27.869C93.1562 26.2479 93.166 24.9979 93.1074 24.119C93.0488 23.2206 93.0098 22.5468 92.9902 22.0975ZM95.041 16.2675C95.4316 16.2675 95.8027 16.3846 96.1543 16.619C96.5059 16.8534 96.6816 17.1659 96.6816 17.5565C96.6816 17.8495 96.6035 18.1327 96.4473 18.4061C96.3105 18.6796 96.1348 18.9237 95.9199 19.1385C95.7051 19.3534 95.4609 19.5292 95.1875 19.6659C94.9141 19.7831 94.6602 19.8417 94.4258 19.8417C94.1133 19.8417 93.8594 19.7928 93.6641 19.6952C93.4688 19.578 93.3125 19.451 93.1953 19.3143C93.0977 19.1581 93.0293 18.9921 92.9902 18.8163C92.9512 18.6405 92.9316 18.4745 92.9316 18.3182C92.9316 18.1229 92.9609 17.9081 93.0195 17.6737C93.0781 17.4198 93.1855 17.1952 93.3418 16.9999C93.498 16.785 93.7129 16.6093 93.9863 16.4725C94.2598 16.3358 94.6113 16.2675 95.041 16.2675ZM94.3086 18.9921C94.4258 18.9921 94.5527 18.953 94.6895 18.8749C94.8457 18.7772 94.9824 18.6698 95.0996 18.5526C95.2363 18.4354 95.3438 18.3085 95.4219 18.1718C95.5195 18.035 95.5684 17.9178 95.5684 17.8202C95.5684 17.6639 95.4902 17.5858 95.334 17.5858C95.2363 17.5858 95.1094 17.6249 94.9531 17.703C94.8164 17.7811 94.6797 17.8788 94.543 17.996C94.4062 18.0936 94.2891 18.2108 94.1914 18.3475C94.1133 18.4647 94.0742 18.5819 94.0742 18.6991C94.0742 18.8944 94.1523 18.9921 94.3086 18.9921ZM99.377 33.2596C99.123 33.0643 98.918 32.8885 98.7617 32.7323C98.6055 32.576 98.4785 32.4393 98.3809 32.3221C98.2637 32.1854 98.1758 32.0585 98.1172 31.9413C97.9609 31.6678 97.9121 31.3749 97.9707 31.0624C98.0293 30.7499 98.1465 30.3983 98.3223 30.0077C98.4785 29.6757 98.7324 29.2069 99.084 28.6014C99.4551 27.996 99.8848 27.3319 100.373 26.6093C100.1 26.16 99.8164 25.6815 99.5234 25.1737C99.25 24.7245 98.9473 24.2069 98.6152 23.621C98.3027 23.0155 97.9512 22.371 97.5605 21.6874C97.8145 21.5116 98.0488 21.3944 98.2637 21.3358C98.498 21.2577 98.7031 21.2186 98.8789 21.2186C99.0938 21.2186 99.2793 21.2382 99.4355 21.2772C99.7871 21.4335 100.1 21.8241 100.373 22.4491C100.666 23.0546 101.066 23.8651 101.574 24.8807C101.828 24.5292 102.111 24.1483 102.424 23.7382C102.697 23.3866 103 22.9764 103.332 22.5077C103.684 22.0194 104.074 21.4921 104.504 20.9257C104.621 20.9647 104.729 20.994 104.826 21.0135C104.943 21.0331 105.051 21.0624 105.148 21.1014C105.246 21.1405 105.344 21.1796 105.441 21.2186C105.52 21.2577 105.598 21.3163 105.676 21.3944C105.793 21.5116 105.93 21.6971 106.086 21.951C105.578 22.6346 105.119 23.2694 104.709 23.8553C104.299 24.4413 103.938 24.9491 103.625 25.3788C103.273 25.8866 102.951 26.3456 102.658 26.7557C102.658 26.7557 102.639 26.7948 102.6 26.8729C102.619 26.8925 102.629 26.912 102.629 26.9315C102.629 26.9315 102.639 26.9413 102.658 26.9608C102.932 27.41 103.244 27.9178 103.596 28.4843C103.908 28.9725 104.289 29.5585 104.738 30.2421C105.188 30.9257 105.705 31.7069 106.291 32.5858C105.979 32.703 105.715 32.7811 105.5 32.8202C105.383 32.8397 105.275 32.8495 105.178 32.8495C105.08 32.869 104.973 32.869 104.855 32.8495C104.758 32.83 104.631 32.8007 104.475 32.7616C104.338 32.7421 104.191 32.703 104.035 32.6444C103.723 32.1561 103.42 31.6776 103.127 31.2089C102.834 30.7206 102.57 30.2811 102.336 29.8905C102.062 29.4413 101.809 29.0116 101.574 28.6014C101.281 29.1093 100.998 29.6268 100.725 30.1542C100.49 30.6034 100.246 31.1112 99.9922 31.6776C99.7383 32.2245 99.5332 32.7518 99.377 33.2596ZM115.695 30.9745C115.734 31.1112 115.793 31.2382 115.871 31.3553C115.93 31.453 116.008 31.5507 116.105 31.6483C116.223 31.7264 116.359 31.7753 116.516 31.7948C116.379 32.0682 116.242 32.2538 116.105 32.3514C116.027 32.41 115.959 32.4491 115.9 32.4686C115.725 32.5272 115.461 32.5565 115.109 32.5565C114.758 32.5565 114.416 32.4491 114.084 32.2343C113.967 32.1366 113.859 31.9901 113.762 31.7948C113.664 31.6385 113.576 31.4237 113.498 31.1503C113.439 30.8573 113.391 30.4862 113.352 30.037C113.078 30.6229 112.766 31.0917 112.414 31.4432C112.082 31.7753 111.75 32.0194 111.418 32.1757C111.047 32.3905 110.666 32.5175 110.275 32.5565C109.787 32.5956 109.318 32.5175 108.869 32.3221C108.439 32.1073 108.068 31.7948 107.756 31.3846C107.463 30.955 107.238 30.4374 107.082 29.8319C106.926 29.2264 106.877 28.5428 106.936 27.7811C106.994 26.9803 107.15 26.2675 107.404 25.6425C107.658 25.0175 107.961 24.4608 108.312 23.9725C108.664 23.4843 109.035 23.0741 109.426 22.7421C109.816 22.3905 110.188 22.1073 110.539 21.8925C110.91 21.6581 111.223 21.4921 111.477 21.3944C111.75 21.2772 111.926 21.2089 112.004 21.1893C112.219 21.1307 112.404 21.1112 112.561 21.1307C112.717 21.1503 112.854 21.2382 112.971 21.3944C113.01 21.453 113.059 21.5214 113.117 21.5995C113.156 21.6776 113.205 21.785 113.264 21.9218C113.322 22.0389 113.371 22.1757 113.41 22.3319C112.941 22.5468 112.502 22.7909 112.092 23.0643C111.682 23.3182 111.301 23.6307 110.949 24.0018C110.617 24.3729 110.324 24.8221 110.07 25.3495C109.816 25.8768 109.621 26.5214 109.484 27.2831C109.289 28.2401 109.338 29.0116 109.631 29.5975C109.943 30.1835 110.363 30.4276 110.891 30.33C111.203 30.2323 111.506 30.0468 111.799 29.7733C112.053 29.5389 112.316 29.1874 112.59 28.7186C112.883 28.2499 113.156 27.6053 113.41 26.785C113.508 25.6132 113.586 24.6952 113.645 24.0311C113.723 23.3475 113.791 22.83 113.85 22.4784C113.928 22.0682 113.986 21.7948 114.025 21.6581C114.084 21.5604 114.201 21.4725 114.377 21.3944C114.553 21.2968 114.748 21.2186 114.963 21.16C115.178 21.1014 115.373 21.0721 115.549 21.0721C115.725 21.0526 115.842 21.0526 115.9 21.0721C115.939 21.0917 115.959 21.3358 115.959 21.8046C115.959 22.2538 115.939 22.83 115.9 23.5331C115.881 24.2167 115.852 24.9686 115.812 25.7889C115.773 26.5897 115.734 27.3514 115.695 28.0741C115.676 28.7968 115.656 29.4315 115.637 29.9784C115.637 30.5057 115.656 30.8378 115.695 30.9745Z" fill="black"/>
<path d="M20.3479 35.4855L20.4384 35.4193C25.8341 32.9208 27.6206 27.6072 24.5101 23.2895L20.251 17.4641L16.0744 23.1497C12.9769 27.3351 14.775 32.7073 20.1783 35.4435L20.2461 35.5362L20.3479 35.4855Z" fill="#FFC100"/>
<path d="M24.5802 32.1291C23.4596 33.5578 22.0046 34.6886 20.3436 35.422L20.2322 35.5034L20.1623 35.4079C18.5176 34.6396 17.0846 33.4824 15.9873 32.0361C17.198 33.021 18.7069 33.5663 20.2675 33.5832C21.8281 33.6001 23.3484 33.0875 24.5802 32.1291V32.1291Z" fill="black"/>
<path d="M23.6093 21.8308C22.5724 21.4114 21.4577 21.2028 20.3301 21.2171C19.1835 21.2244 18.0447 21.4535 16.9775 21.8918L20.4071 17.3668L23.6093 21.8308Z" fill="black"/>
<path d="M25.8852 29.5383C26.2224 28.491 26.3129 27.3798 26.1496 26.2917C24.4616 27.6059 22.6554 27.133 20.5162 27.1084C18.377 27.0838 16.0317 27.5089 14.3744 26.1561C14.187 27.2427 14.2502 28.3577 14.5595 29.4161C16.2865 30.3819 18.2282 30.8992 20.2068 30.9206C22.1854 30.942 24.1378 30.4667 25.8852 29.5383Z" fill="black"/>
<path d="M24.4853 15.8816C24.4882 16.7322 24.2375 17.5644 23.7653 18.2719C23.293 18.9794 22.6206 19.5301 21.8339 19.8536C21.0472 20.1772 20.1819 20.259 19.3486 20.0885C18.5152 19.9179 17.7516 19.5029 17.1552 18.8963C16.5588 18.2898 16.1568 17.5193 16.0004 16.6831C15.844 15.847 15.9403 14.9832 16.2771 14.2021C16.6139 13.421 17.1759 12.758 17.8913 12.2978C18.6067 11.8376 19.443 11.601 20.2935 11.6183C21.4104 11.6411 22.4742 12.0997 23.2575 12.8964C24.0408 13.693 24.4814 14.7644 24.4853 15.8816V15.8816Z" fill="black"/>
<path d="M18.4662 23.8092C16.4786 21.5728 14.0689 19.6475 11.4254 18.1837C10.1913 17.5366 8.87114 17.2487 7.68793 17.3685C7.14031 17.4634 6.65953 17.6777 6.27893 17.9965C6.11086 18.1822 5.96138 18.3828 5.83156 18.5969C5.70764 18.7959 5.61254 19.0137 5.54788 19.2464C5.44782 19.7401 5.49872 20.2882 5.69592 20.8405C5.89312 21.3927 6.23029 21.9315 6.67654 22.4073C7.62021 23.4613 8.79547 24.337 10.0754 24.9398C12.7751 26.1917 15.5911 26.7676 18.172 26.5957C15.6698 27.2564 12.7048 26.9667 9.81082 25.7786C8.3081 25.1381 6.91541 24.151 5.80133 22.937C5.19894 22.2959 4.74328 21.5699 4.47607 20.8253C4.20886 20.0807 4.13862 19.3413 4.27178 18.6749C4.36589 18.3497 4.50435 18.0467 4.68462 17.7715C4.88033 17.5259 5.10173 17.3006 5.34686 17.0977C5.85331 16.6907 6.4902 16.4231 7.21239 16.3138C8.66731 16.2001 10.2831 16.6105 11.758 17.4686C14.4467 19.1062 16.7764 21.3082 18.4662 23.8092V23.8092Z" fill="#B7B0B0"/>
<path d="M21.5917 24.1643C23.1059 21.7429 25.379 19.5743 28.1307 17.9259C29.6224 17.0848 31.3204 16.6507 32.9093 16.7042C33.6973 16.7872 34.4085 17.0225 34.9894 17.3925C35.2818 17.5695 35.5491 17.7702 35.7884 17.9924C36.0185 18.2454 36.208 18.5246 36.3538 18.8252C36.5879 19.4374 36.6074 20.1264 36.4106 20.8278C36.2139 21.5292 35.8072 22.2203 35.2286 22.8366C34.1461 24.0141 32.7318 24.9881 31.1545 25.6424C28.1472 26.8435 24.9538 27.2214 22.1382 26.7093C24.9862 26.7862 28.0009 26.159 30.809 24.9054C32.1166 24.2799 33.275 23.4175 34.1674 22.405C34.5868 21.9497 34.8822 21.4421 35.0276 20.9272C35.173 20.4122 35.1638 19.9058 35.0009 19.4527C34.8989 19.2376 34.7678 19.0364 34.6096 18.8522C34.4212 18.6752 34.2128 18.5133 33.9862 18.3679C33.5313 18.0744 32.9792 17.8799 32.3666 17.7975C31.0583 17.7255 29.6497 18.0416 28.3825 18.6916C25.7439 20.1601 23.4211 22.0321 21.5917 24.1643Z" fill="#B7B0B0"/>
<path d="M16.1152 6.06967L16.185 6.16522L18.0856 10.7358C18.1253 10.8448 18.1236 10.9646 18.0809 11.0724C18.0381 11.1802 17.9573 11.2685 17.8536 11.3207C17.8004 11.3425 17.7432 11.3536 17.6856 11.3532C17.628 11.3527 17.5711 11.3409 17.5181 11.3182C17.4652 11.2955 17.4172 11.2625 17.3772 11.2211C17.3371 11.1797 17.3057 11.1308 17.2847 11.0771L15.3725 6.49053C15.3507 6.43724 15.3396 6.38012 15.34 6.32251C15.3404 6.2649 15.3523 6.20795 15.375 6.15499C15.3977 6.10203 15.4307 6.05415 15.4721 6.01408C15.5135 5.97401 15.5624 5.94256 15.6161 5.92162C15.7037 5.88548 15.801 5.88048 15.8918 5.90743C15.9827 5.93438 16.0615 5.99162 16.1152 6.06967Z" fill="black"/>
<path d="M25.3771 6.06768C25.4237 6.1282 25.4527 6.20048 25.4609 6.27645C25.469 6.35242 25.4559 6.42913 25.4231 6.49815L23.431 11.0568C23.4107 11.1125 23.3791 11.1635 23.3383 11.2065C23.2975 11.2496 23.2482 11.2837 23.1937 11.307C23.1391 11.3302 23.0804 11.3421 23.021 11.3417C22.9617 11.3414 22.9031 11.3288 22.8488 11.3049C22.7945 11.281 22.7457 11.2463 22.7054 11.2028C22.6651 11.1593 22.6341 11.108 22.6144 11.052C22.5947 10.996 22.5867 10.9367 22.5909 10.8775C22.595 10.8183 22.6113 10.7606 22.6386 10.708L24.6307 6.1493C24.6809 6.04773 24.7673 5.96865 24.8729 5.9276C24.9786 5.88655 25.0957 5.88653 25.2014 5.92752L25.3771 6.06768Z" fill="black"/>
</svg>
